<svg width="100%" height="100%" viewBox="0 0 7 12" xmlns="http://www.w3.org/2000/svg" class="svg-icon " xmlns:xlink="http://www.w3.org/1999/xlink"><path fill="inherit" stroke="none" transform="" d="M6.7079 5.2779C6.84859 5.41842 6.92772 5.60905 6.9279 5.8079V6.1879C6.9256 6.38631 6.84678 6.57618 6.7079 6.7179L1.5679 11.8479C1.47402 11.9426 1.34622 11.9958 1.2129 11.9958C1.07958 11.9958 0.951782 11.9426 0.857899 11.8479L0.147899 11.1379C0.0538351 11.0457 0.000827726 10.9196 0.000827726 10.7879C0.000827726 10.6562 0.0538351 10.5301 0.147899 10.4379L4.5979 5.9979L0.147899 1.5579C0.0532428 1.46402 0 1.33622 0 1.2029C0 1.06958 0.0532428 0.941782 0.147899 0.847899L0.857899 0.147899C0.951782 0.0532428 1.07958 0 1.2129 0C1.34622 0 1.47402 0.0532428 1.5679 0.147899L6.7079 5.2779Z"></path></svg>