<svg width="100%" height="100%" viewBox="0 0 7 12" xmlns="http://www.w3.org/2000/svg" class="svg-icon " xmlns:xlink="http://www.w3.org/1999/xlink"><path fill="#inherit" stroke="none" transform="" d="M0.219999 6.7179C0.0793093 6.57738 0.00018 6.38675 0 6.1879V5.8079C0.0023 5.60949 0.0811203 5.41962 0.22 5.2779L5.36 0.147899C5.45388 0.0531996 5.58168 -2e-08 5.715 0C5.84832 1e-08 5.97612 0.0531996 6.07 0.1479L6.78 0.8579C6.87407 0.9501 6.92707 1.0762 6.92707 1.2079C6.92707 1.3396 6.87407 1.4657 6.78 1.5579L2.33 5.9979L6.78 10.4379C6.87466 10.5318 6.9279 10.6596 6.9279 10.7929C6.9279 10.9262 6.87466 11.054 6.78 11.1479L6.07 11.8479C5.97612 11.9426 5.84832 11.9958 5.715 11.9958C5.58168 11.9958 5.45388 11.9426 5.36 11.8479L0.219999 6.7179Z"></path></svg>